<svg width="11" height="6" viewBox="0 0 11 6" fill="none" xmlns="http://www.w3.org/2000/svg">
<path d="M5.50024 5.33422C5.33473 5.33454 5.17434 5.2769 5.0469 5.1713L0.796903 1.62964C0.652249 1.50941 0.561282 1.33663 0.544013 1.14933C0.526744 0.962031 0.584588 0.77554 0.704819 0.630887C0.825051 0.486233 0.997821 0.395266 1.18512 0.377997C1.37243 0.360728 1.55892 0.418572 1.70357 0.538803L5.50024 3.71214L9.2969 0.652137C9.36936 0.593299 9.45272 0.54936 9.54222 0.522845C9.63171 0.496331 9.72555 0.487765 9.81836 0.497639C9.91118 0.507512 10.0011 0.535631 10.083 0.580379C10.1649 0.625127 10.2372 0.685622 10.2957 0.758387C10.3605 0.831219 10.4097 0.916662 10.44 1.00936C10.4703 1.10207 10.4811 1.20003 10.4718 1.29712C10.4625 1.3942 10.4332 1.48832 10.3859 1.57357C10.3385 1.65883 10.274 1.73338 10.1965 1.79255L5.94649 5.2138C5.81538 5.30271 5.65827 5.34511 5.50024 5.33422Z" fill="#797979"/>
</svg>
