<svg width="19" height="19" viewBox="0 0 19 19" fill="none" xmlns="http://www.w3.org/2000/svg">
<path d="M6.90288 18.2497C6.11112 18.2461 5.32803 18.0919 4.59918 17.796C3.87033 17.5001 3.21029 17.0686 2.65746 16.5264C2.10878 16.029 1.66803 15.433 1.36043 14.7724C1.05284 14.1119 0.884427 13.3998 0.864845 12.677C0.845262 11.9541 0.97489 11.2347 1.24631 10.5598C1.51773 9.8849 1.92562 9.26784 2.44663 8.7439L9.49996 1.93307C9.87663 1.57344 10.3256 1.29056 10.8197 1.1015C11.3138 0.912436 11.8429 0.821122 12.375 0.833069C12.9449 0.834925 13.5087 0.945305 14.0336 1.15777C14.5585 1.37024 15.0339 1.68053 15.432 2.07057C16.2246 2.80045 16.6842 3.79987 16.7111 4.8519C16.738 5.90392 16.3301 6.92364 15.5758 7.68973L8.48413 14.5006C8.25698 14.7193 7.98669 14.8927 7.68892 15.0107C7.39116 15.1287 7.07186 15.189 6.74954 15.1881C6.40136 15.1885 6.05661 15.1222 5.73564 14.9931C5.41468 14.864 5.12401 14.6747 4.88079 14.4364C4.39466 13.9862 4.11391 13.3707 4.09955 12.7236C4.0852 12.0765 4.3384 11.4501 4.80413 10.9806L11.3495 4.69224C11.5358 4.5739 11.7595 4.5216 11.9819 4.54439C12.2042 4.56719 12.4112 4.66364 12.5671 4.81705C12.7229 4.97046 12.8177 5.17117 12.8352 5.38442C12.8526 5.59767 12.7915 5.81003 12.6625 5.98474L6.11704 12.2731C6.0079 12.3988 5.95477 12.5606 5.96911 12.7235C5.98345 12.8864 6.06411 13.0374 6.19371 13.1439C6.32856 13.2738 6.51035 13.3492 6.70163 13.3547C6.77248 13.3557 6.84283 13.3432 6.90863 13.3181C6.97442 13.2929 7.03435 13.2555 7.08496 13.2081L14.167 6.39723C14.5646 5.97482 14.7723 5.41973 14.7454 4.85196C14.7185 4.2842 14.4591 3.74936 14.0233 3.36307C13.6185 2.96106 13.068 2.72274 12.4851 2.69716C11.9021 2.67159 11.3311 2.86069 10.8895 3.22557L3.80746 9.99973C3.46308 10.3535 3.19524 10.769 3.01935 11.2222C2.84347 11.6754 2.76301 12.1574 2.7826 12.6404C2.8022 13.1235 2.92146 13.5981 3.13353 14.0369C3.3456 14.4757 3.64629 14.87 4.01829 15.1972C4.39135 15.5671 4.83773 15.8622 5.33137 16.0653C5.825 16.2683 6.35598 16.3752 6.89329 16.3797C7.35657 16.3833 7.81602 16.2993 8.24527 16.1326C8.67451 15.9658 9.06508 15.7196 9.39454 15.4081L16.4766 8.59724C16.5654 8.51177 16.6708 8.44385 16.787 8.39736C16.9031 8.35088 17.0277 8.32673 17.1537 8.32631C17.2796 8.32588 17.4043 8.34918 17.5209 8.39488C17.6374 8.44058 17.7433 8.50778 17.8327 8.59265C17.922 8.67752 17.993 8.77839 18.0416 8.8895C18.0902 9.00062 18.1155 9.1198 18.1159 9.24024C18.1164 9.36069 18.092 9.48004 18.0442 9.59148C17.9964 9.70292 17.9262 9.80427 17.8375 9.88973L10.7554 16.7006C10.2525 17.19 9.65303 17.5791 8.99168 17.845C8.33032 18.1109 7.6203 18.2485 6.90288 18.2497Z" fill="#848484"/>
</svg>
