<svg width="16" height="19" viewBox="0 0 16 19" fill="none" xmlns="http://www.w3.org/2000/svg">
<path fill-rule="evenodd" clip-rule="evenodd" d="M0 1.84615C0 1.35652 0.194505 0.886947 0.540726 0.540726C0.886947 0.194505 1.35652 0 1.84615 0L11.9471 0L16 4.05292V16.6154C16 17.105 15.8055 17.5746 15.4593 17.9208C15.1131 18.267 14.6435 18.4615 14.1538 18.4615H1.84615C1.35652 18.4615 0.886947 18.267 0.540726 17.9208C0.194505 17.5746 0 17.105 0 16.6154V1.84615ZM7.80554 4.95508C7.92801 4.91422 8.06022 4.91292 8.18347 4.95135C8.30673 4.98978 8.41477 5.06601 8.49231 5.16923L8.86154 5.66154C9.26279 6.19654 9.78309 6.63077 10.3812 6.92984C10.9794 7.22891 11.6389 7.38462 12.3077 7.38462V8.61539C10.9453 8.61535 9.63079 8.11319 8.61539 7.20492V12.3077C8.6154 12.8496 8.43661 13.3763 8.10675 13.8062C7.77689 14.2361 7.31439 14.5451 6.79098 14.6854C6.26758 14.8257 5.71252 14.7893 5.21189 14.5819C4.71127 14.3746 4.29305 14.0078 4.02211 13.5386C3.75117 13.0693 3.64264 12.5237 3.71336 11.9865C3.78409 11.4492 4.03011 10.9504 4.41326 10.5672C4.79642 10.184 5.29531 9.93801 5.83254 9.86728C6.36978 9.79655 6.91534 9.90506 7.38462 10.176V5.53846C7.38471 5.40936 7.42541 5.28355 7.50095 5.17886C7.57649 5.07416 7.68305 4.99587 7.80554 4.95508Z" fill="black"/>
</svg>
