<svg width="13" height="13" viewBox="0 0 13 13" fill="none" xmlns="http://www.w3.org/2000/svg">
<path d="M5.19292 12.1257C4.64214 12.1232 4.09738 12.0181 3.59035 11.8163C3.08333 11.6146 2.62417 11.3204 2.23959 10.9507C1.8579 10.6116 1.55129 10.2052 1.33731 9.75481C1.12333 9.30445 1.00618 8.81895 0.992553 8.3261C0.978931 7.83324 1.06911 7.3427 1.25792 6.88256C1.44674 6.42241 1.73048 6.00169 2.09292 5.64446L6.99959 1.00071C7.26162 0.755506 7.57393 0.56263 7.91768 0.433726C8.26142 0.304821 8.62947 0.242562 8.99959 0.250708C9.39606 0.251973 9.7883 0.327232 10.1534 0.472095C10.5186 0.616957 10.8493 0.828524 11.1263 1.09446C11.6776 1.59211 11.9973 2.27353 12.016 2.99082C12.0348 3.70811 11.751 4.40337 11.2263 4.92571L6.29292 9.56946C6.13491 9.7186 5.94688 9.83683 5.73974 9.9173C5.5326 9.99776 5.31048 10.0389 5.08626 10.0382C4.84404 10.0385 4.60421 9.99331 4.38094 9.90529C4.15766 9.81727 3.95545 9.6882 3.78626 9.52571C3.44808 9.21874 3.25277 8.79906 3.24279 8.35786C3.2328 7.91666 3.40894 7.48959 3.73292 7.16946L8.28626 2.88196C8.41584 2.80127 8.57145 2.76561 8.72613 2.78115C8.88081 2.7967 9.02482 2.86246 9.13322 2.96706C9.24163 3.07166 9.3076 3.2085 9.31972 3.3539C9.33184 3.4993 9.28935 3.64409 9.19959 3.76321L4.64626 8.05071C4.57033 8.13647 4.53337 8.24675 4.54335 8.35781C4.55332 8.46887 4.60943 8.57181 4.69959 8.64446C4.7934 8.73301 4.91986 8.78446 5.05292 8.78821C5.10221 8.78887 5.15116 8.78037 5.19692 8.76321C5.24269 8.74605 5.28438 8.72056 5.31959 8.68821L10.2463 4.04446C10.5228 3.75645 10.6673 3.37798 10.6486 2.99086C10.6299 2.60375 10.4494 2.23909 10.1463 1.97571C9.86465 1.70161 9.48169 1.53912 9.07618 1.52168C8.67067 1.50424 8.27345 1.63318 7.96626 1.88196L3.03959 6.50071C2.80002 6.74194 2.6137 7.02521 2.49134 7.3342C2.36899 7.6432 2.31301 7.97183 2.32664 8.30118C2.34028 8.63054 2.42324 8.95411 2.57077 9.25329C2.71829 9.55247 2.92747 9.82135 3.18626 10.0445C3.44578 10.2967 3.7563 10.4979 4.0997 10.6363C4.44309 10.7747 4.81247 10.8476 5.18626 10.8507C5.50854 10.8532 5.82816 10.7959 6.12676 10.6822C6.42536 10.5685 6.69706 10.4006 6.92626 10.1882L11.8529 5.54446C11.9146 5.48618 11.988 5.43988 12.0688 5.40818C12.1496 5.37649 12.2363 5.36003 12.3239 5.35974C12.4115 5.35945 12.4983 5.37533 12.5793 5.40649C12.6604 5.43765 12.7341 5.48347 12.7963 5.54133C12.8584 5.5992 12.9078 5.66797 12.9416 5.74373C12.9754 5.81949 12.993 5.90075 12.9933 5.98287C12.9936 6.06499 12.9767 6.14637 12.9434 6.22235C12.9102 6.29833 12.8613 6.36743 12.7996 6.42571L7.87292 11.0695C7.52313 11.4032 7.10608 11.6684 6.646 11.8497C6.18593 12.0311 5.692 12.1249 5.19292 12.1257Z" fill="#848484"/>
</svg>
