<svg width="18" height="18" viewBox="0 0 18 18" fill="none" xmlns="http://www.w3.org/2000/svg">
<path d="M8.4187 7.06841C8.5032 6.98391 8.55067 6.8693 8.55067 6.7498C8.55067 6.63031 8.5032 6.5157 8.4187 6.4312C8.3342 6.34671 8.2196 6.29924 8.1001 6.29924C7.9806 6.29924 7.866 6.34671 7.7815 6.4312L6.5107 7.702L6.1534 7.3762C6.06462 7.30032 5.94982 7.26193 5.83326 7.26913C5.71669 7.27634 5.6075 7.32858 5.52874 7.41481C5.44998 7.50105 5.40784 7.61453 5.41121 7.73126C5.41458 7.848 5.4632 7.95886 5.5468 8.0404L6.2218 8.65691C6.30732 8.73477 6.41955 8.77672 6.53518 8.77404C6.65081 8.77136 6.76097 8.72425 6.8428 8.6425L8.4178 7.0675L8.4187 7.06841ZM8.4187 10.9312C8.46061 10.973 8.49385 11.0227 8.51654 11.0773C8.53923 11.132 8.5509 11.1906 8.5509 11.2498C8.5509 11.309 8.53923 11.3676 8.51654 11.4223C8.49385 11.4769 8.46061 11.5266 8.4187 11.5684L6.8437 13.1434C6.76171 13.2253 6.6513 13.2724 6.53546 13.2749C6.41961 13.2774 6.30726 13.2352 6.2218 13.1569L5.5468 12.5404C5.4632 12.4589 5.41458 12.348 5.41121 12.2313C5.40784 12.1145 5.44998 12.001 5.52874 11.9148C5.6075 11.8286 5.71669 11.7763 5.83326 11.7691C5.94982 11.7619 6.06462 11.8003 6.1534 11.8762L6.5107 12.2029L7.7815 10.9312C7.8233 10.8893 7.87296 10.856 7.92763 10.8334C7.9823 10.8107 8.04091 10.799 8.1001 10.799C8.15929 10.799 8.2179 10.8107 8.27257 10.8334C8.32724 10.856 8.3769 10.8893 8.4187 10.9312ZM9.9001 11.6998C9.78075 11.6998 9.66629 11.7472 9.5819 11.8316C9.49751 11.916 9.4501 12.0305 9.4501 12.1498C9.4501 12.2692 9.49751 12.3836 9.5819 12.468C9.66629 12.5524 9.78075 12.5998 9.9001 12.5998H12.1501C12.2694 12.5998 12.3839 12.5524 12.4683 12.468C12.5527 12.3836 12.6001 12.2692 12.6001 12.1498C12.6001 12.0305 12.5527 11.916 12.4683 11.8316C12.3839 11.7472 12.2694 11.6998 12.1501 11.6998H9.9001ZM9.4501 7.64981C9.4501 7.53046 9.49751 7.416 9.5819 7.33161C9.66629 7.24722 9.78075 7.1998 9.9001 7.1998H12.1501C12.2694 7.1998 12.3839 7.24722 12.4683 7.33161C12.5527 7.416 12.6001 7.53046 12.6001 7.64981C12.6001 7.76915 12.5527 7.88361 12.4683 7.968C12.3839 8.05239 12.2694 8.0998 12.1501 8.0998H9.9001C9.78075 8.0998 9.66629 8.05239 9.5819 7.968C9.49751 7.88361 9.4501 7.76915 9.4501 7.64981ZM7.6501 1.7998C7.3708 1.79966 7.09834 1.88614 6.87026 2.04733C6.64217 2.20852 6.4697 2.43648 6.3766 2.6998H4.9501C4.59206 2.6998 4.24868 2.84204 3.9955 3.09521C3.74233 3.34838 3.6001 3.69176 3.6001 4.0498V14.8498C3.6001 15.2078 3.74233 15.5512 3.9955 15.8044C4.24868 16.0576 4.59206 16.1998 4.9501 16.1998H13.0501C13.4081 16.1998 13.7515 16.0576 14.0047 15.8044C14.2579 15.5512 14.4001 15.2078 14.4001 14.8498V4.0498C14.4001 3.69176 14.2579 3.34838 14.0047 3.09521C13.7515 2.84204 13.4081 2.6998 13.0501 2.6998H11.6236C11.5305 2.43648 11.358 2.20852 11.1299 2.04733C10.9019 1.88614 10.6294 1.79966 10.3501 1.7998H7.6501ZM7.2001 3.1498C7.2001 3.03046 7.24751 2.916 7.3319 2.83161C7.41629 2.74722 7.53075 2.6998 7.6501 2.6998H10.3501C10.4694 2.6998 10.5839 2.74722 10.6683 2.83161C10.7527 2.916 10.8001 3.03046 10.8001 3.1498C10.8001 3.26915 10.7527 3.38361 10.6683 3.468C10.5839 3.55239 10.4694 3.5998 10.3501 3.5998H7.6501C7.53075 3.5998 7.41629 3.55239 7.3319 3.468C7.24751 3.38361 7.2001 3.26915 7.2001 3.1498ZM4.9501 3.5998H6.3766C6.4697 3.86313 6.64217 4.09109 6.87026 4.25228C7.09834 4.41347 7.3708 4.49995 7.6501 4.4998H10.3501C10.6294 4.49995 10.9019 4.41347 11.1299 4.25228C11.358 4.09109 11.5305 3.86313 11.6236 3.5998H13.0501C13.1694 3.5998 13.2839 3.64722 13.3683 3.73161C13.4527 3.816 13.5001 3.93046 13.5001 4.0498V14.8498C13.5001 14.9692 13.4527 15.0836 13.3683 15.168C13.2839 15.2524 13.1694 15.2998 13.0501 15.2998H4.9501C4.83075 15.2998 4.71629 15.2524 4.6319 15.168C4.54751 15.0836 4.5001 14.9692 4.5001 14.8498V4.0498C4.5001 3.93046 4.54751 3.816 4.6319 3.73161C4.71629 3.64722 4.83075 3.5998 4.9501 3.5998Z" fill="black"/>
</svg>
