<svg width="16" height="20" viewBox="0 0 16 20" fill="none" xmlns="http://www.w3.org/2000/svg">
<path d="M9.83366 0.833984H2.50033C2.0141 0.833984 1.54778 1.02714 1.20396 1.37096C0.860146 1.71477 0.666992 2.18109 0.666992 2.66732V17.334C0.666992 17.8202 0.860146 18.2865 1.20396 18.6303C1.54778 18.9742 2.0141 19.1673 2.50033 19.1673H13.5003C13.9866 19.1673 14.4529 18.9742 14.7967 18.6303C15.1405 18.2865 15.3337 17.8202 15.3337 17.334V6.33398L9.83366 0.833984ZM5.39241 15.0002C5.00191 15.3247 4.40882 15.4777 3.68374 15.4777C3.24833 15.4777 2.94124 15.4502 2.73224 15.4227V11.7827C3.10713 11.7287 3.48558 11.7032 3.86433 11.7066C4.56833 11.7066 5.02482 11.8331 5.38141 12.1026C5.76641 12.3886 6.00841 12.8451 6.00841 13.4977C6.00841 14.2082 5.74991 14.6977 5.39241 15.0002ZM8.13324 15.5007C7.03324 15.5007 6.39066 14.6702 6.39066 13.6142C6.39066 12.5041 7.09924 11.6745 8.19374 11.6745C9.33132 11.6745 9.95282 12.5261 9.95282 13.5491C9.95191 14.7637 9.21491 15.5007 8.13324 15.5007ZM12.4003 14.8022C12.6524 14.8022 12.9329 14.7462 13.0988 14.6812L13.2253 15.3347C13.0713 15.4117 12.7248 15.4942 12.2747 15.4942C10.9942 15.4942 10.3342 14.6977 10.3342 13.6417C10.3342 12.3776 11.2352 11.6745 12.3572 11.6745C12.7917 11.6745 13.1208 11.7625 13.2693 11.8395L13.0988 12.505C12.8756 12.4128 12.6363 12.366 12.3948 12.3675C11.7293 12.3675 11.2123 12.769 11.2123 13.594C11.2123 14.3356 11.6523 14.8022 12.4003 14.8022ZM9.83366 7.25065H8.91699V2.66732L13.5003 7.25065H9.83366Z" fill="black"/>
</svg>
