<svg width="14" height="11" viewBox="0 0 14 11" fill="none" xmlns="http://www.w3.org/2000/svg">
<path d="M4.9 5.5C6.44656 5.5 7.7 4.26895 7.7 2.75C7.7 1.23105 6.44656 0 4.9 0C3.35344 0 2.1 1.23105 2.1 2.75C2.1 4.26895 3.35344 5.5 4.9 5.5ZM6.86 6.1875H6.49468C6.00906 6.40664 5.46875 6.53125 4.9 6.53125C4.33125 6.53125 3.79312 6.40664 3.30531 6.1875H2.94C1.31687 6.1875 0 7.48086 0 9.075V9.96875C0 10.5381 0.470312 11 1.05 11H8.74999C9.32968 11 9.79999 10.5381 9.79999 9.96875V9.075C9.79999 7.48086 8.48312 6.1875 6.86 6.1875ZM13.9256 3.42891L13.3175 2.8252C13.2169 2.72422 13.0528 2.72422 12.95 2.82305L10.6575 5.05742L9.66218 4.07344C9.56156 3.97246 9.39749 3.97246 9.29468 4.07129L8.67999 4.6707C8.57718 4.76953 8.57718 4.93066 8.67781 5.03164L10.465 6.7998C10.5656 6.90078 10.7297 6.90078 10.8325 6.80195L13.9234 3.78984C14.0241 3.68887 14.0262 3.52773 13.9256 3.42891Z" fill="white"/>
</svg>
