<svg width="15" height="18" viewBox="0 0 15 18" fill="none" xmlns="http://www.w3.org/2000/svg">
<path d="M14.526 4.63867L10.1127 0.433594C9.98965 0.316406 9.82148 0.25 9.64717 0.25H0.9375C0.574512 0.25 0.28125 0.529297 0.28125 0.875V17.125C0.28125 17.4707 0.574512 17.75 0.9375 17.75H14.0625C14.4255 17.75 14.7188 17.4707 14.7188 17.125V5.08008C14.7188 4.91406 14.649 4.75586 14.526 4.63867ZM5.20312 6.85156C5.65635 6.85156 6.02344 7.20117 6.02344 7.63281C6.02344 8.06445 5.65635 8.41406 5.20312 8.41406C4.7499 8.41406 4.38281 8.06445 4.38281 7.63281C4.38281 7.20117 4.7499 6.85156 5.20312 6.85156ZM11.2734 12.5938H3.72656C3.58916 12.5938 3.51328 12.4434 3.59736 12.3418L5.64404 9.85742C5.65939 9.83875 5.679 9.82364 5.70138 9.81326C5.72377 9.80287 5.74834 9.79747 5.77324 9.79747C5.79814 9.79747 5.82272 9.80287 5.8451 9.81326C5.86749 9.82364 5.88709 9.83875 5.90244 9.85742L6.74531 10.8809L8.34082 8.94336C8.35617 8.92468 8.37578 8.90958 8.39816 8.89919C8.42055 8.88881 8.44512 8.88341 8.47002 8.88341C8.49492 8.88341 8.51949 8.88881 8.54188 8.89919C8.56426 8.90958 8.58387 8.92468 8.59922 8.94336L11.3985 12.3418C11.4867 12.4434 11.4088 12.5938 11.2734 12.5938ZM9.3457 5.36719V1.69141L13.2053 5.36719H9.3457Z" fill="black"/>
</svg>
