<svg width="15" height="15" viewBox="0 0 15 15" fill="none" xmlns="http://www.w3.org/2000/svg">
<path d="M7.5 0.234375C3.48633 0.234375 0.234375 3.48633 0.234375 7.5C0.234375 11.5137 3.48633 14.7656 7.5 14.7656C11.5137 14.7656 14.7656 11.5137 14.7656 7.5C14.7656 3.48633 11.5137 0.234375 7.5 0.234375ZM7.03125 9.84375C7.03125 10.1016 6.82031 10.3125 6.5625 10.3125H5.15625C4.89844 10.3125 4.6875 10.1016 4.6875 9.84375V5.15625C4.6875 4.89844 4.89844 4.6875 5.15625 4.6875H6.5625C6.82031 4.6875 7.03125 4.89844 7.03125 5.15625V9.84375ZM10.3125 9.84375C10.3125 10.1016 10.1016 10.3125 9.84375 10.3125H8.4375C8.17969 10.3125 7.96875 10.1016 7.96875 9.84375V5.15625C7.96875 4.89844 8.17969 4.6875 8.4375 4.6875H9.84375C10.1016 4.6875 10.3125 4.89844 10.3125 5.15625V9.84375Z" fill="white"/>
</svg>
