<svg width="21" height="11" viewBox="0 0 21 11" fill="none" xmlns="http://www.w3.org/2000/svg">
<path d="M15.7084 10.7087H12.5834V8.62532H15.7084C16.5372 8.62532 17.332 8.29608 17.9181 7.71003C18.5041 7.12398 18.8334 6.32913 18.8334 5.50032C18.8334 4.67152 18.5041 3.87667 17.9181 3.29062C17.332 2.70456 16.5372 2.37532 15.7084 2.37532H12.5834V0.291992H15.7084C17.0897 0.291992 18.4145 0.840726 19.3912 1.81748C20.368 2.79423 20.9167 4.11899 20.9167 5.50032C20.9167 6.88166 20.368 8.20642 19.3912 9.18317C18.4145 10.1599 17.0897 10.7087 15.7084 10.7087ZM8.41671 10.7087H5.29171C3.91037 10.7087 2.58561 10.1599 1.60886 9.18317C0.632108 8.20642 0.083374 6.88166 0.083374 5.50032C0.083374 4.11899 0.632108 2.79423 1.60886 1.81748C2.58561 0.840726 3.91037 0.291992 5.29171 0.291992H8.41671V2.37532H5.29171C4.46291 2.37532 3.66805 2.70456 3.082 3.29062C2.49595 3.87667 2.16671 4.67152 2.16671 5.50032C2.16671 6.32913 2.49595 7.12398 3.082 7.71003C3.66805 8.29608 4.46291 8.62532 5.29171 8.62532H8.41671V10.7087ZM15.7084 6.54199H5.29171V4.45866H15.7084V6.54199Z" fill="#848484"/>
</svg>
