<svg width="24" height="13" viewBox="0 0 24 13" fill="none" xmlns="http://www.w3.org/2000/svg">
<path d="M9.00028 10.9998H7.21028C6.18264 11.0273 5.18171 10.6705 4.40315 9.99917C3.62459 9.32787 3.12437 8.39034 3.00028 7.36985C2.94867 6.81431 3.01384 6.25412 3.19162 5.72527C3.3694 5.19642 3.65584 4.71061 4.03255 4.29905C4.40926 3.8875 4.8679 3.5593 5.379 3.33555C5.8901 3.11181 6.44236 2.99745 7.00028 2.99985H9.00028C9.2655 2.99985 9.51985 2.89449 9.70739 2.70695C9.89493 2.51942 10.0003 2.26506 10.0003 1.99985C10.0003 1.73463 9.89493 1.48028 9.70739 1.29274C9.51985 1.1052 9.2655 0.999846 9.00028 0.999846H7.21028C5.728 0.980038 4.28845 1.4963 3.15659 2.4536C2.02472 3.41091 1.27673 4.74483 1.05028 6.20985C0.937729 7.05725 1.00755 7.91891 1.25507 8.73713C1.50258 9.55536 1.92208 10.3112 2.48547 10.9542C3.04886 11.5971 3.74312 12.1122 4.52176 12.465C5.3004 12.8178 6.14544 13.0002 7.00028 12.9998H9.00028C9.2655 12.9998 9.51985 12.8945 9.70739 12.707C9.89493 12.5194 10.0003 12.2651 10.0003 11.9998C10.0003 11.7346 9.89493 11.4803 9.70739 11.2927C9.51985 11.1052 9.2655 10.9998 9.00028 10.9998ZM23.0003 6.23985C22.7767 4.75636 22.0193 3.40548 20.8705 2.44071C19.7216 1.47594 18.2601 0.963602 16.7603 0.999846H15.2503C14.4403 0.999846 14.0003 1.44985 14.0003 1.99985C14.0003 2.26506 14.1056 2.51942 14.2932 2.70695C14.4807 2.89449 14.7351 2.99985 15.0003 2.99985H16.7903C17.8179 2.97242 18.8189 3.32923 19.5974 4.00053C20.376 4.67183 20.8762 5.60936 21.0003 6.62985C21.0519 7.18538 20.9867 7.74558 20.8089 8.27443C20.6312 8.80328 20.3447 9.28909 19.968 9.70064C19.5913 10.1122 19.1327 10.4404 18.6216 10.6641C18.1105 10.8879 17.5582 11.0022 17.0003 10.9998H15.0003C14.7351 10.9998 14.4807 11.1052 14.2932 11.2927C14.1056 11.4803 14.0003 11.7346 14.0003 11.9998C14.0003 12.2651 14.1056 12.5194 14.2932 12.707C14.4807 12.8945 14.7351 12.9998 15.0003 12.9998H17.0003C17.8564 13.0067 18.7042 12.8303 19.4865 12.4824C20.2688 12.1346 20.9677 11.6233 21.536 10.9829C22.1044 10.3426 22.5291 9.58801 22.7817 8.76991C23.0342 7.95182 23.1088 7.08914 23.0003 6.23985Z" fill="black"/>
</svg>
