<svg width="15" height="19" viewBox="0 0 15 19" fill="none" xmlns="http://www.w3.org/2000/svg">
<path d="M14.526 4.92061C14.649 5.04365 14.7188 5.20977 14.7188 5.38408V18.0312C14.7188 18.3942 14.4255 18.6875 14.0625 18.6875H0.9375C0.574512 18.6875 0.28125 18.3942 0.28125 18.0312V0.96875C0.28125 0.605762 0.574512 0.3125 0.9375 0.3125H9.64717C9.82148 0.3125 9.98965 0.382227 10.1127 0.505273L14.526 4.92061ZM13.2053 5.68555L9.3457 1.82598V5.68555H13.2053ZM9.98596 12.0688C9.67465 12.0586 9.34365 12.0825 8.96774 12.1295C8.4694 11.8221 8.1339 11.3998 7.8956 10.7795L7.91754 10.6897L7.94297 10.5834C8.03115 10.2116 8.07853 9.9403 8.09268 9.66673C8.10334 9.46021 8.09186 9.2697 8.05515 9.09313C7.98747 8.71188 7.71779 8.48897 7.37798 8.47522C7.06113 8.46231 6.76992 8.63929 6.69548 8.91348C6.57428 9.35686 6.64523 9.9403 6.9022 10.9353C6.57489 11.7157 6.14238 12.6305 5.8522 13.1408C5.4648 13.3405 5.16313 13.5222 4.90966 13.7236C4.57538 13.9896 4.36661 14.2629 4.30919 14.55C4.2813 14.6831 4.32334 14.8571 4.41911 14.9996C4.5278 15.1612 4.69145 15.2662 4.88771 15.2814C5.38298 15.3197 5.99165 14.8091 6.66369 13.6559C6.73116 13.6334 6.80253 13.6096 6.88969 13.58L7.13373 13.4976C7.28815 13.4455 7.40013 13.4082 7.51087 13.3723C7.99075 13.216 8.35374 13.1174 8.68392 13.0612C9.25772 13.3684 9.92095 13.5698 10.3676 13.5698C10.7363 13.5698 10.9855 13.3786 11.0755 13.0778C11.1545 12.8137 11.0919 12.5073 10.9221 12.3379C10.7466 12.1654 10.4238 12.083 9.98596 12.0688ZM4.90022 14.7024V14.695L4.90289 14.6881C4.9329 14.6105 4.97141 14.5365 5.01773 14.4674C5.10551 14.3325 5.2263 14.1905 5.37601 14.0394C5.4564 13.9584 5.54007 13.8794 5.6383 13.7908C5.66024 13.7712 5.80052 13.6463 5.82677 13.6217L6.05584 13.4084L5.88932 13.6735C5.63666 14.0763 5.4082 14.3663 5.21256 14.5554C5.14058 14.6251 5.07721 14.6764 5.02594 14.7094C5.00901 14.7207 4.9911 14.7304 4.97241 14.7385C4.964 14.742 4.95662 14.7441 4.94924 14.7447C4.94144 14.7457 4.93353 14.7446 4.92627 14.7416C4.91855 14.7384 4.91196 14.7329 4.90733 14.7259C4.90269 14.719 4.90022 14.7108 4.90022 14.7024ZM7.48298 10.226L7.43663 10.308L7.40792 10.2182C7.34435 10.0166 7.29759 9.71287 7.28467 9.43889C7.2699 9.12717 7.29472 8.94014 7.39315 8.94014C7.53138 8.94014 7.59475 9.16162 7.59967 9.49487C7.60418 9.78772 7.55804 10.0925 7.48277 10.226H7.48298ZM7.36383 11.4249L7.39521 11.3418L7.43807 11.4197C7.6778 11.8553 7.98891 12.2187 8.33098 12.472L8.4048 12.5265L8.31478 12.545C7.97988 12.6143 7.66796 12.7185 7.2414 12.8906C7.2859 12.8725 6.79802 13.0723 6.67456 13.1196L6.56689 13.1608L6.62432 13.0608C6.87759 12.6199 7.11158 12.0903 7.36362 11.4249H7.36383ZM10.5963 12.9888C10.4351 13.0524 10.0881 12.9956 9.47716 12.7347L9.32212 12.6687L9.49028 12.6564C9.96811 12.6209 10.3065 12.6471 10.5038 12.7193C10.5879 12.7501 10.6438 12.7888 10.6687 12.8331C10.6817 12.8541 10.6861 12.8793 10.6809 12.9035C10.6757 12.9276 10.6613 12.9488 10.6408 12.9625C10.6277 12.974 10.6126 12.9829 10.5963 12.9888Z" fill="black"/>
</svg>
