<svg width="15" height="15" viewBox="0 0 15 15" fill="none" xmlns="http://www.w3.org/2000/svg">
<path d="M3.75 0.46875C3.75 0.34443 3.70061 0.225201 3.61271 0.137294C3.5248 0.049386 3.40557 0 3.28125 0C3.15693 0 3.0377 0.049386 2.94979 0.137294C2.86189 0.225201 2.8125 0.34443 2.8125 0.46875V0.9375H1.875C1.37772 0.9375 0.900806 1.13504 0.549175 1.48667C0.197544 1.83831 0 2.31522 0 2.8125L0 3.75H15V2.8125C15 2.31522 14.8025 1.83831 14.4508 1.48667C14.0992 1.13504 13.6223 0.9375 13.125 0.9375H12.1875V0.46875C12.1875 0.34443 12.1381 0.225201 12.0502 0.137294C11.9623 0.049386 11.8431 0 11.7188 0C11.5944 0 11.4752 0.049386 11.3873 0.137294C11.2994 0.225201 11.25 0.34443 11.25 0.46875V0.9375H3.75V0.46875ZM15 13.125V4.6875H0V13.125C0 13.6223 0.197544 14.0992 0.549175 14.4508C0.900806 14.8025 1.37772 15 1.875 15H13.125C13.6223 15 14.0992 14.8025 14.4508 14.4508C14.8025 14.0992 15 13.6223 15 13.125ZM11.7188 6.5625H12.6562C12.7806 6.5625 12.8998 6.61189 12.9877 6.69979C13.0756 6.7877 13.125 6.90693 13.125 7.03125V7.96875C13.125 8.09307 13.0756 8.2123 12.9877 8.30021C12.8998 8.38811 12.7806 8.4375 12.6562 8.4375H11.7188C11.5944 8.4375 11.4752 8.38811 11.3873 8.30021C11.2994 8.2123 11.25 8.09307 11.25 7.96875V7.03125C11.25 6.90693 11.2994 6.7877 11.3873 6.69979C11.4752 6.61189 11.5944 6.5625 11.7188 6.5625Z" fill="#848484"/>
</svg>
