<svg width="11" height="9" viewBox="0 0 11 9" fill="none" xmlns="http://www.w3.org/2000/svg">
<path d="M9.69705 2.611C9.7034 2.69987 9.7034 2.78876 9.7034 2.87763C9.7034 5.5883 7.64025 8.71163 3.86941 8.71163C2.70768 8.71163 1.6285 8.37516 0.720703 7.79115C0.885762 7.81018 1.04445 7.81653 1.21586 7.81653C2.17442 7.81653 3.05684 7.49278 3.76149 6.94049C2.86004 6.92144 2.1046 6.33106 1.84432 5.51848C1.9713 5.53752 2.09825 5.55022 2.23158 5.55022C2.41567 5.55022 2.59978 5.52481 2.77117 5.4804C1.83164 5.28994 1.12697 4.46468 1.12697 3.46801V3.44263C1.39993 3.59499 1.71737 3.69021 2.0538 3.70289C1.5015 3.33469 1.13967 2.70623 1.13967 1.99522C1.13967 1.61434 1.24122 1.26519 1.41898 0.960471C2.42835 2.20472 3.94558 3.01727 5.64688 3.10616C5.61514 2.9538 5.59609 2.79511 5.59609 2.63641C5.59609 1.50642 6.51024 0.585938 7.64656 0.585938C8.23694 0.585938 8.77018 0.833516 9.14474 1.23345C9.60814 1.14458 10.0525 0.973173 10.4461 0.738295C10.2937 1.21442 9.96999 1.61436 9.54467 1.86827C9.95731 1.82385 10.3572 1.70956 10.7254 1.55087C10.4462 1.95714 10.097 2.31897 9.69705 2.611Z" fill="white"/>
</svg>
