<svg width="20" height="20" viewBox="0 0 20 20" fill="none" xmlns="http://www.w3.org/2000/svg">
<path d="M16.3776 3.61114C15.806 0.192544 13.0487 -1.04039 10 0.965932C6.95128 -1.04039 4.19399 0.192544 3.61114 3.61114C0.192544 4.19399 -1.04039 6.95128 0.965932 10C-1.04039 13.0487 0.192544 15.806 3.61114 16.3889C4.19399 19.8075 6.95128 21.0404 10 19.0341C13.0487 21.0404 15.806 19.8075 16.3889 16.3889C19.8075 15.806 21.0404 13.0487 19.0341 10C21.0292 6.95128 19.7962 4.19399 16.3776 3.61114ZM14.7412 8.25147L9.3387 13.6316C9.12574 13.8445 8.83431 13.9566 8.54289 13.9566C8.50927 13.9566 8.47564 13.9566 8.45323 13.9566C8.11697 13.9342 7.81434 13.7549 7.62379 13.4859L5.1355 10.056C4.76562 9.54045 4.87771 8.83431 5.3933 8.46443C5.90889 8.09455 6.61503 8.20664 6.98491 8.72223L8.6886 11.0872L13.1496 6.63744C13.5979 6.20031 14.3153 6.20031 14.7636 6.64865C15.1895 7.08578 15.1895 7.81434 14.7412 8.25147Z" fill="#75BFFF"/>
</svg>
