<svg width="23" height="23" viewBox="0 0 23 23" fill="none" xmlns="http://www.w3.org/2000/svg">
<path fill-rule="evenodd" clip-rule="evenodd" d="M11.5006 0.958008C5.67878 0.958008 0.958984 5.6778 0.958984 11.4997C0.958984 17.3215 5.67878 22.0413 11.5006 22.0413C17.3225 22.0413 22.0423 17.3215 22.0423 11.4997C22.0423 5.6778 17.3225 0.958008 11.5006 0.958008ZM12.459 6.70801C12.459 6.45384 12.358 6.21009 12.1783 6.03036C11.9986 5.85064 11.7548 5.74967 11.5006 5.74967C11.2465 5.74967 11.0027 5.85064 10.823 6.03036C10.6433 6.21009 10.5423 6.45384 10.5423 6.70801V12.458C10.5423 12.7122 10.6433 12.9559 10.823 13.1357C11.0027 13.3154 11.2465 13.4163 11.5006 13.4163C11.7548 13.4163 11.9986 13.3154 12.1783 13.1357C12.358 12.9559 12.459 12.7122 12.459 12.458V6.70801ZM12.459 15.8122C12.459 15.558 12.358 15.3143 12.1783 15.1345C11.9986 14.9548 11.7548 14.8538 11.5006 14.8538C11.2465 14.8538 11.0027 14.9548 10.823 15.1345C10.6433 15.3143 10.5423 15.558 10.5423 15.8122V16.2913C10.5423 16.5455 10.6433 16.7893 10.823 16.969C11.0027 17.1487 11.2465 17.2497 11.5006 17.2497C11.7548 17.2497 11.9986 17.1487 12.1783 16.969C12.358 16.7893 12.459 16.5455 12.459 16.2913V15.8122Z" fill="#FCBA39"/>
</svg>
