<svg width="9" height="6" viewBox="0 0 9 6" fill="none" xmlns="http://www.w3.org/2000/svg">
<path d="M8.29085 0.968542C8.1974 0.630739 7.92206 0.364696 7.57246 0.274411C6.93878 0.110352 4.3978 0.110352 4.3978 0.110352C4.3978 0.110352 1.85684 0.110352 1.22315 0.274411C0.87355 0.364711 0.598207 0.630739 0.504755 0.968542C0.334961 1.58083 0.334961 2.85831 0.334961 2.85831C0.334961 2.85831 0.334961 4.13579 0.504755 4.74808C0.598207 5.08588 0.87355 5.34084 1.22315 5.43112C1.85684 5.59518 4.3978 5.59518 4.3978 5.59518C4.3978 5.59518 6.93876 5.59518 7.57246 5.43112C7.92206 5.34084 8.1974 5.08588 8.29085 4.74808C8.46065 4.13579 8.46065 2.85831 8.46065 2.85831C8.46065 2.85831 8.46065 1.58083 8.29085 0.968542ZM3.56676 4.01817V1.69845L5.69051 2.85834L3.56676 4.01817Z" fill="white"/>
</svg>
