<svg width="8" height="8" viewBox="0 0 8 8" fill="none" xmlns="http://www.w3.org/2000/svg">
<path d="M2.0078 0.491815C1.61331 0.0973262 0.973719 0.097326 0.579229 0.491815C0.18474 0.886305 0.184741 1.5259 0.57923 1.92039L2.64274 3.9839L0.49206 6.13458C0.0975703 6.52907 0.0975716 7.16866 0.492061 7.56315C0.88655 7.95764 1.52614 7.95764 1.92063 7.56315L4.07131 5.41247L6.22173 7.56288C6.61622 7.95737 7.25581 7.95737 7.6503 7.56288C8.04479 7.16839 8.04479 6.5288 7.6503 6.13431L5.49988 3.9839L7.56313 1.92065C7.95762 1.52617 7.95762 0.886572 7.56313 0.492083C7.16864 0.0975937 6.52905 0.0975936 6.13456 0.492083L4.07131 2.55533L2.0078 0.491815Z" fill="#FC3262"/>
</svg>
