<svg width="11" height="12" viewBox="0 0 11 12" fill="none" xmlns="http://www.w3.org/2000/svg">
<path d="M2.79159 0C2.64793 0 2.51015 0.0570683 2.40857 0.158651C2.30699 0.260233 2.24992 0.398008 2.24992 0.541667C2.24992 0.685326 2.30699 0.823101 2.40857 0.924683C2.51015 1.02627 2.64793 1.08333 2.79159 1.08333H7.12492C7.26858 1.08333 7.40635 1.02627 7.50794 0.924683C7.60952 0.823101 7.66659 0.685326 7.66659 0.541667C7.66659 0.398008 7.60952 0.260233 7.50794 0.158651C7.40635 0.0570683 7.26858 0 7.12492 0L2.79159 0ZM0.083252 7.04167C0.083252 5.74874 0.596866 4.50876 1.51111 3.59452C2.42535 2.68028 3.66532 2.16667 4.95825 2.16667C6.25118 2.16667 7.49116 2.68028 8.4054 3.59452C9.31964 4.50876 9.83325 5.74874 9.83325 7.04167C9.83325 8.3346 9.31964 9.57457 8.4054 10.4888C7.49116 11.4031 6.25118 11.9167 4.95825 11.9167C3.66532 11.9167 2.42535 11.4031 1.51111 10.4888C0.596866 9.57457 0.083252 8.3346 0.083252 7.04167ZM4.41659 8.125C4.41659 8.26866 4.47365 8.40643 4.57524 8.50802C4.67682 8.6096 4.81459 8.66667 4.95825 8.66667C5.10191 8.66667 5.23969 8.6096 5.34127 8.50802C5.44285 8.40643 5.49992 8.26866 5.49992 8.125V4.875C5.49992 4.73134 5.44285 4.59357 5.34127 4.49198C5.23969 4.3904 5.10191 4.33333 4.95825 4.33333C4.81459 4.33333 4.67682 4.3904 4.57524 4.49198C4.47365 4.59357 4.41659 4.73134 4.41659 4.875V8.125ZM10.7584 4.17408C10.657 4.27577 10.5193 4.33301 10.3757 4.33322C10.2321 4.33342 10.0942 4.27657 9.9925 4.17517L8.907 3.094C8.8552 3.04411 8.81386 2.98439 8.78538 2.91835C8.7569 2.85231 8.74186 2.78125 8.74114 2.70933C8.74041 2.63741 8.75402 2.56607 8.78116 2.49947C8.8083 2.43286 8.84843 2.37233 8.89922 2.3214C8.95 2.27047 9.01042 2.23017 9.07695 2.20284C9.14348 2.17551 9.21478 2.1617 9.2867 2.16222C9.35862 2.16274 9.42972 2.17758 9.49584 2.20587C9.56197 2.23416 9.62179 2.27534 9.67184 2.327L10.7573 3.40817C10.859 3.5096 10.9163 3.64727 10.9165 3.7909C10.9167 3.93453 10.8598 4.07236 10.7584 4.17408Z" fill="#FF3743"/>
</svg>
