<svg width="8" height="10" viewBox="0 0 8 10" fill="none" xmlns="http://www.w3.org/2000/svg">
<path d="M4.89715 8.59484C3.09407 8.59484 1.63238 7.33662 1.63238 5.78452C1.63238 4.40207 2.79201 3.25276 4.31962 3.01804L4.31962 4.41456C4.31962 4.88401 4.97898 5.11911 5.36461 4.78716L7.62214 2.84388C7.86119 2.6381 7.86223 2.30535 7.62317 2.09957L5.36461 0.155391C4.97898 -0.17656 4.31962 0.0585459 4.31962 0.527994L4.31962 1.59805C1.88717 1.84404 -2.78679e-07 3.62457 -1.84264e-07 5.78452C-8.2498e-08 8.11267 2.19253 10 4.89715 10C5.91278 10 6.85846 9.73309 7.64161 9.27624C8.01477 9.05855 8.11227 8.62169 7.85938 8.30048C7.6065 7.97927 7.099 7.89534 6.72585 8.11302C6.20444 8.41719 5.57613 8.59484 4.89715 8.59484Z" fill="#F1B920"/>
</svg>
