<svg width="8" height="8" viewBox="0 0 8 8" fill="none" xmlns="http://www.w3.org/2000/svg">
<path d="M2.29162 1.01869C1.96498 0.692053 1.43539 0.692053 1.10875 1.01869C0.782107 1.34533 0.782108 1.87492 1.10875 2.20156L2.81735 3.91017L1.03657 5.69095C0.70993 6.01759 0.709931 6.54718 1.03657 6.87382C1.36321 7.20046 1.8928 7.20046 2.21944 6.87382L4.00022 5.09304L5.78078 6.8736C6.10742 7.20024 6.63701 7.20024 6.96365 6.8736C7.29029 6.54696 7.29029 6.01737 6.96365 5.69073L5.18309 3.91017L6.89147 2.20178C7.21811 1.87514 7.21811 1.34556 6.89147 1.01892C6.56483 0.692275 6.03524 0.692275 5.7086 1.01892L4.00022 2.7273L2.29162 1.01869Z" fill="white"/>
</svg>
