<svg width="11" height="8" viewBox="0 0 11 8" fill="none" xmlns="http://www.w3.org/2000/svg">
<path d="M1.54568 4.89715C1.54568 3.09407 2.92972 1.63238 4.63703 1.63238C6.15773 1.63238 7.42197 2.79201 7.68016 4.31962H6.14398C5.62759 4.31962 5.36897 4.97898 5.73412 5.36461L7.87173 7.62214C8.09809 7.86119 8.46411 7.86223 8.69047 7.62317L10.8291 5.36461C11.1942 4.97898 10.9356 4.31962 10.4192 4.31962H9.24215C8.97155 1.88717 7.01297 0 4.63703 0C2.07607 0 0 2.19253 0 4.89715C0 5.91278 0.293597 6.85846 0.79614 7.64161C1.03559 8.01477 1.51614 8.11227 1.86947 7.85938C2.2228 7.6065 2.31512 7.099 2.07567 6.72585C1.74109 6.20444 1.54568 5.57613 1.54568 4.89715Z" fill="white"/>
</svg>
