<svg width="14" height="14" viewBox="0 0 14 14" fill="none" xmlns="http://www.w3.org/2000/svg">
<rect width="14" height="14" rx="2" fill="#F1B920"/>
<path d="M3.40516 7.285C3.40516 5.70731 4.66338 4.42833 6.21548 4.42833C7.59793 4.42833 8.74724 5.44301 8.98196 6.77967H7.58544C7.11599 6.77967 6.88089 7.35661 7.21284 7.69404L9.15612 9.66937C9.3619 9.87855 9.69465 9.87945 9.90043 9.67027L11.8446 7.69403C12.1766 7.35661 11.9415 6.77967 11.472 6.77967H10.402C10.156 4.65128 8.37543 3 6.21548 3C3.88733 3 2 4.91846 2 7.285C2 8.17368 2.26691 9.00115 2.72376 9.68641C2.94144 10.0129 3.3783 10.0982 3.69952 9.87696C4.02073 9.65569 4.10466 9.21162 3.88698 8.88511C3.58281 8.42888 3.40516 7.87911 3.40516 7.285Z" fill="white"/>
</svg>
