<svg width="14" height="14" viewBox="0 0 14 14" fill="none" xmlns="http://www.w3.org/2000/svg">
<path fill-rule="evenodd" clip-rule="evenodd" d="M2 0C0.895431 0 0 0.89543 0 2V12C0 13.1046 0.89543 14 2 14H12C13.1046 14 14 13.1046 14 12V2C14 0.895431 13.1046 0 12 0H2ZM10.9713 5.03864L6.26672 9.74319C6.10695 9.90296 5.84794 9.90297 5.68816 9.74317L3.02907 7.08407C2.86932 6.92432 2.86932 6.66529 3.02907 6.50554L3.6076 5.92701C3.76738 5.76726 4.02641 5.76726 4.18616 5.92701L5.97744 7.71829L9.81418 3.88158C9.97395 3.72181 10.233 3.72183 10.3927 3.88158L10.9713 4.46011C11.131 4.61986 11.131 4.87889 10.9713 5.03864Z" fill="#3161F1"/>
</svg>
