<svg width="14" height="14" viewBox="0 0 14 14" fill="none" xmlns="http://www.w3.org/2000/svg">
<rect width="14" height="14" rx="2" fill="#FC3262"/>
<path d="M5.29162 4.01869C4.96498 3.69205 4.43539 3.69205 4.10875 4.01869C3.78211 4.34533 3.78211 4.87492 4.10875 5.20156L5.81735 6.91017L4.03657 8.69095C3.70993 9.01759 3.70993 9.54718 4.03657 9.87382C4.36321 10.2005 4.8928 10.2005 5.21944 9.87382L7.00022 8.09304L8.78078 9.8736C9.10742 10.2002 9.63701 10.2002 9.96365 9.8736C10.2903 9.54696 10.2903 9.01737 9.96365 8.69073L8.18309 6.91017L9.89147 5.20178C10.2181 4.87514 10.2181 4.34556 9.89147 4.01892C9.56483 3.69227 9.03524 3.69227 8.7086 4.01892L7.00022 5.7273L5.29162 4.01869Z" fill="white"/>
</svg>
