<svg width="39" height="39" viewBox="0 0 39 39" fill="none" xmlns="http://www.w3.org/2000/svg">
<path d="M27.675 23.25C27.825 22.0125 27.9375 20.775 27.9375 19.5C27.9375 18.225 27.825 16.9875 27.675 15.75H34.0125C34.3125 16.95 34.5 18.2062 34.5 19.5C34.5 20.7938 34.3125 22.05 34.0125 23.25H27.675ZM24.3563 33.675C25.4813 31.5937 26.3438 29.3438 26.9438 27H32.475C30.6584 30.128 27.7765 32.4975 24.3563 33.675ZM23.8875 23.25H15.1125C14.925 22.0125 14.8125 20.775 14.8125 19.5C14.8125 18.225 14.925 16.9688 15.1125 15.75H23.8875C24.0563 16.9688 24.1875 18.225 24.1875 19.5C24.1875 20.775 24.0563 22.0125 23.8875 23.25ZM19.5 34.425C17.9438 32.175 16.6875 29.6812 15.9188 27H23.0813C22.3125 29.6812 21.0563 32.175 19.5 34.425ZM12 12H6.525C8.32286 8.86353 11.2027 6.49029 14.625 5.325C13.5 7.40625 12.6563 9.65625 12 12ZM6.525 27H12C12.6563 29.3438 13.5 31.5937 14.625 33.675C11.2099 32.4969 8.33409 30.127 6.525 27ZM4.9875 23.25C4.6875 22.05 4.5 20.7938 4.5 19.5C4.5 18.2062 4.6875 16.95 4.9875 15.75H11.325C11.175 16.9875 11.0625 18.225 11.0625 19.5C11.0625 20.775 11.175 22.0125 11.325 23.25H4.9875ZM19.5 4.55625C21.0563 6.80625 22.3125 9.31875 23.0813 12H15.9188C16.6875 9.31875 17.9438 6.80625 19.5 4.55625ZM32.475 12H26.9438C26.3569 9.67773 25.488 7.43605 24.3563 5.325C27.8063 6.50625 30.675 8.8875 32.475 12ZM19.5 0.75C9.13125 0.75 0.75 9.1875 0.75 19.5C0.75 24.4728 2.72544 29.2419 6.24175 32.7583C7.98285 34.4994 10.0498 35.8805 12.3247 36.8227C14.5995 37.765 17.0377 38.25 19.5 38.25C24.4728 38.25 29.2419 36.2746 32.7583 32.7583C36.2746 29.2419 38.25 24.4728 38.25 19.5C38.25 17.0377 37.765 14.5995 36.8227 12.3247C35.8805 10.0498 34.4994 7.98285 32.7583 6.24175C31.0172 4.50065 28.9502 3.11953 26.6753 2.17726C24.4005 1.23498 21.9623 0.75 19.5 0.75Z" fill="white"/>
</svg>
