<svg width="38" height="38" viewBox="0 0 38 38" fill="none" xmlns="http://www.w3.org/2000/svg">
<circle cx="19" cy="19" r="19" fill="#66B7FB"/>
<path d="M26.675 14.9875C26.6875 15.1625 26.6875 15.3375 26.6875 15.5125C26.6875 20.85 22.625 27 15.2 27C12.9125 27 10.7875 26.3375 9 25.1875C9.32501 25.225 9.63748 25.2375 9.975 25.2375C11.8625 25.2375 13.6 24.6 14.9875 23.5125C13.2125 23.475 11.725 22.3125 11.2125 20.7125C11.4625 20.75 11.7125 20.775 11.975 20.775C12.3375 20.775 12.7 20.725 13.0375 20.6375C11.1875 20.2625 9.79997 18.6375 9.79997 16.675V16.625C10.3374 16.925 10.9625 17.1125 11.625 17.1375C10.5374 16.4125 9.82498 15.175 9.82498 13.775C9.82498 13.025 10.0249 12.3375 10.375 11.7375C12.3625 14.1875 15.35 15.7875 18.7 15.9625C18.6375 15.6625 18.6 15.35 18.6 15.0375C18.6 12.8125 20.4 11 22.6375 11C23.8 11 24.8499 11.4875 25.5875 12.275C26.4999 12.1 27.3749 11.7625 28.15 11.3C27.8499 12.2375 27.2124 13.025 26.375 13.525C27.1875 13.4375 27.975 13.2125 28.6999 12.9C28.15 13.7 27.4625 14.4125 26.675 14.9875Z" fill="white"/>
</svg>
