<svg width="38" height="38" viewBox="0 0 38 38" fill="none" xmlns="http://www.w3.org/2000/svg">
<circle cx="19" cy="19" r="19" fill="#FA3D3D"/>
<path d="M26.6657 15.6898C26.4817 15.0247 25.9395 14.5008 25.2511 14.323C24.0033 14 19 14 19 14C19 14 13.9967 14 12.7489 14.323C12.0605 14.5008 11.5183 15.0247 11.3343 15.6898C11 16.8955 11 19.4109 11 19.4109C11 19.4109 11 21.9263 11.3343 23.132C11.5183 23.7971 12.0605 24.2992 12.7489 24.4769C13.9967 24.8 19 24.8 19 24.8C19 24.8 24.0033 24.8 25.2511 24.4769C25.9395 24.2992 26.4817 23.7971 26.6657 23.132C27 21.9263 27 19.4109 27 19.4109C27 19.4109 27 16.8955 26.6657 15.6898ZM17.3636 21.6947V17.1271L21.5454 19.411L17.3636 21.6947Z" fill="white"/>
</svg>
