<svg width="14" height="17" viewBox="0 0 14 17" fill="none" xmlns="http://www.w3.org/2000/svg">
<path d="M12.25 16.4173H1.75C1.35218 16.4173 0.970644 16.2505 0.68934 15.9536C0.408035 15.6566 0.25 15.2539 0.25 14.834V3.75065C0.25 3.33072 0.408035 2.928 0.68934 2.63107C0.970644 2.33413 1.35218 2.16732 1.75 2.16732H2.45833C2.89556 2.16732 3.25 1.81288 3.25 1.37565V1.33398C3.25 0.919771 3.58579 0.583984 4 0.583984C4.41421 0.583984 4.75 0.919771 4.75 1.33398V1.37565C4.75 1.81288 5.10444 2.16732 5.54167 2.16732H8.45833C8.89556 2.16732 9.25 1.81288 9.25 1.37565V1.33398C9.25 0.919771 9.58579 0.583984 10 0.583984C10.4142 0.583984 10.75 0.919771 10.75 1.33398V1.37565C10.75 1.81288 11.1044 2.16732 11.5417 2.16732H12.25C12.6478 2.16732 13.0294 2.33413 13.3107 2.63107C13.592 2.928 13.75 3.33072 13.75 3.75065V14.834C13.75 15.2539 13.592 15.6566 13.3107 15.9536C13.0294 16.2505 12.6478 16.4173 12.25 16.4173ZM2.75 6.91732C2.19772 6.91732 1.75 7.36503 1.75 7.91732V13.834C1.75 14.3863 2.19772 14.834 2.75 14.834H11.25C11.8023 14.834 12.25 14.3863 12.25 13.834V7.91732C12.25 7.36503 11.8023 6.91732 11.25 6.91732H2.75ZM2.54167 3.75065C2.10444 3.75065 1.75 4.10509 1.75 4.54232C1.75 4.97954 2.10444 5.33398 2.54167 5.33398H11.4583C11.8956 5.33398 12.25 4.97954 12.25 4.54232C12.25 4.10509 11.8956 3.75065 11.4583 3.75065H2.54167ZM10.75 12.5007C10.75 12.9149 10.4142 13.2507 10 13.2507C9.58579 13.2507 9.25 12.9149 9.25 12.5007V12.4173C9.25 12.0031 9.58579 11.6673 10 11.6673C10.4142 11.6673 10.75 12.0031 10.75 12.4173V12.5007ZM7.75 12.5007C7.75 12.9149 7.41421 13.2507 7 13.2507C6.58579 13.2507 6.25 12.9149 6.25 12.5007V12.4173C6.25 12.0031 6.58579 11.6673 7 11.6673C7.41421 11.6673 7.75 12.0031 7.75 12.4173V12.5007ZM4.75 12.5007C4.75 12.9149 4.41421 13.2507 4 13.2507C3.58579 13.2507 3.25 12.9149 3.25 12.5007V12.4173C3.25 12.0031 3.58579 11.6673 4 11.6673C4.41421 11.6673 4.75 12.0031 4.75 12.4173V12.5007ZM10.75 9.33398C10.75 9.7482 10.4142 10.084 10 10.084C9.58579 10.084 9.25 9.7482 9.25 9.33398V9.25065C9.25 8.83644 9.58579 8.50065 10 8.50065C10.4142 8.50065 10.75 8.83644 10.75 9.25065V9.33398ZM7.75 9.33398C7.75 9.7482 7.41421 10.084 7 10.084C6.58579 10.084 6.25 9.7482 6.25 9.33398V9.25065C6.25 8.83644 6.58579 8.50065 7 8.50065C7.41421 8.50065 7.75 8.83644 7.75 9.25065V9.33398ZM4.75 9.33398C4.75 9.7482 4.41421 10.084 4 10.084C3.58579 10.084 3.25 9.7482 3.25 9.33398V9.25065C3.25 8.83644 3.58579 8.50065 4 8.50065C4.41421 8.50065 4.75 8.83644 4.75 9.25065V9.33398Z" fill="#323232"/>
</svg>
