<svg width="19" height="23" viewBox="0 0 19 23" fill="none" xmlns="http://www.w3.org/2000/svg">
<path d="M8.52392 9.39347C8.36053 8.93389 7.66836 8.93389 7.50497 9.39347L6.54692 12.0911C6.33604 12.6841 5.98075 13.2229 5.5092 13.6648C5.03765 14.1066 4.4628 14.4395 3.83022 14.6369L0.954586 15.5351C0.464422 15.6883 0.464422 16.3373 0.954586 16.4905L3.83171 17.3888C4.46417 17.5865 5.03882 17.9196 5.51012 18.3618C5.98141 18.8039 6.33639 19.3429 6.54692 19.936L7.50497 22.6322C7.5402 22.7328 7.60842 22.8205 7.69991 22.8826C7.7914 22.9447 7.90148 22.9782 8.01445 22.9782C8.12741 22.9782 8.23749 22.9447 8.32898 22.8826C8.42047 22.8205 8.4887 22.7328 8.52392 22.6322L9.48197 19.9346C9.6927 19.3417 10.0478 18.803 10.5191 18.3612C10.9903 17.9193 11.5649 17.5864 12.1972 17.3888L15.0743 16.4905C15.1816 16.4575 15.2751 16.3935 15.3414 16.3077C15.4076 16.222 15.4433 16.1187 15.4433 16.0128C15.4433 15.9069 15.4076 15.8037 15.3414 15.7179C15.2751 15.6321 15.1816 15.5682 15.0743 15.5351L12.1972 14.6369C11.5649 14.4393 10.9903 14.1064 10.5191 13.6645C10.0478 13.2226 9.6927 12.6839 9.48197 12.0911L8.52392 9.39347ZM14.2618 2.29226C14.2405 2.23194 14.1995 2.17946 14.1446 2.14226C14.0896 2.10507 14.0236 2.08504 13.9558 2.08504C13.8881 2.08504 13.822 2.10507 13.7671 2.14226C13.7122 2.17946 13.6712 2.23194 13.6499 2.29226L13.075 3.91054C12.8181 4.63194 12.215 5.19736 11.4456 5.43829L9.71963 5.97726C9.6553 5.99723 9.59933 6.0357 9.55965 6.0872C9.51998 6.1387 9.49863 6.20062 9.49863 6.26415C9.49863 6.32768 9.51998 6.38959 9.55965 6.44109C9.59933 6.4926 9.6553 6.53107 9.71963 6.55104L11.4456 7.09C11.8251 7.20854 12.1699 7.40831 12.4527 7.67349C12.7355 7.93867 12.9486 8.26197 13.075 8.61776L13.6499 10.236C13.6712 10.2963 13.7122 10.3488 13.7671 10.386C13.822 10.4232 13.8881 10.4432 13.9558 10.4432C14.0236 10.4432 14.0896 10.4232 14.1446 10.386C14.1995 10.3488 14.2405 10.2963 14.2618 10.236L14.8367 8.61776C14.9631 8.26197 15.1761 7.93867 15.459 7.67349C15.7418 7.40831 16.0866 7.20854 16.4661 7.09L18.1921 6.55104C18.2564 6.53107 18.3124 6.4926 18.352 6.44109C18.3917 6.38959 18.4131 6.32768 18.4131 6.26415C18.4131 6.20062 18.3917 6.1387 18.352 6.0872C18.3124 6.0357 18.2564 5.99723 18.1921 5.97726L16.4661 5.43829C16.0866 5.31975 15.7418 5.11998 15.459 4.8548C15.1761 4.58962 14.9631 4.26633 14.8367 3.91054L14.2618 2.29226ZM3.7619 0.831346C3.74723 0.791691 3.71976 0.757306 3.68329 0.73297C3.64682 0.708634 3.60317 0.695557 3.5584 0.695557C3.51364 0.695557 3.46999 0.708634 3.43352 0.73297C3.39705 0.757306 3.36957 0.791691 3.35491 0.831346L2.97169 1.90927C2.80087 2.39113 2.39835 2.76855 1.88441 2.9287L0.734756 3.28801C0.692463 3.30176 0.655788 3.32752 0.629833 3.36172C0.603876 3.39591 0.58993 3.43684 0.58993 3.47881C0.58993 3.52078 0.603876 3.56171 0.629833 3.5959C0.655788 3.63009 0.692463 3.65586 0.734756 3.6696L1.88441 4.02891C2.13768 4.10791 2.36782 4.24118 2.55656 4.41814C2.7453 4.5951 2.88744 4.81088 2.97169 5.04835L3.35491 6.12627C3.36957 6.16593 3.39705 6.20031 3.43352 6.22465C3.46999 6.24898 3.51364 6.26206 3.5584 6.26206C3.60317 6.26206 3.64682 6.24898 3.68329 6.22465C3.71976 6.20031 3.74723 6.16593 3.7619 6.12627L4.14512 5.04835C4.22937 4.81088 4.37151 4.5951 4.56024 4.41814C4.74898 4.24118 4.97912 4.10791 5.23239 4.02891L6.38056 3.6696C6.42286 3.65586 6.45953 3.63009 6.48549 3.5959C6.51144 3.56171 6.52539 3.52078 6.52539 3.47881C6.52539 3.43684 6.51144 3.39591 6.48549 3.36172C6.45953 3.32752 6.42286 3.30176 6.38056 3.28801L5.23091 2.9287C4.71698 2.76855 4.31444 2.39113 4.14363 1.90927L3.7619 0.832738V0.831346Z" fill="#959595"/>
</svg>
