<svg width="17" height="21" viewBox="0 0 17 21" fill="none" xmlns="http://www.w3.org/2000/svg">
<path d="M16.219 10.1934V6.97164H16.2187C16.2178 6.71337 16.1082 6.46561 15.913 6.28105C15.7179 6.0965 15.4527 5.98971 15.1738 5.98339V5.97389H11.9198C11.9039 5.97439 11.8888 5.97839 11.8726 5.97839C11.8564 5.97839 11.8412 5.97439 11.8253 5.97389H11.7705V5.96864C11.0145 5.91914 10.4162 5.34164 10.4162 4.62964C10.4162 4.32064 10.5328 4.03939 10.7215 3.81189H10.6929C10.8872 3.50097 10.9895 3.1481 10.9894 2.78889C10.9894 2.51895 10.9319 2.25165 10.8204 2.00227C10.7088 1.75288 10.5452 1.52629 10.3391 1.33543C10.1329 1.14458 9.88813 0.993202 9.61877 0.889946C9.3494 0.786689 9.06071 0.733577 8.76917 0.733643C8.47767 0.73361 8.18902 0.786748 7.9197 0.890022C7.65038 0.993297 7.40567 1.14468 7.19955 1.33554C6.99343 1.52639 6.82993 1.75297 6.71839 2.00234C6.60686 2.25171 6.54947 2.51898 6.5495 2.78889C6.5495 3.16164 6.65831 3.51039 6.84596 3.81189H6.82139C7.01602 4.04505 7.12204 4.3312 7.12298 4.62589C7.12298 5.33764 6.52466 5.91514 5.76839 5.96439V5.97389H1.84745V5.97889C1.56387 5.98002 1.29231 6.0851 1.09218 6.27114C0.892061 6.45719 0.779671 6.70906 0.779602 6.97164C0.779602 6.98614 0.783652 6.99964 0.784192 7.01414V10.3694H0.795802C0.795873 10.5181 0.859693 10.6607 0.973244 10.7659C1.08679 10.8711 1.24079 10.9303 1.40141 10.9304C1.46243 10.9304 1.52021 10.9191 1.57556 10.9031C1.90634 10.7699 2.26323 10.7011 2.62397 10.7011C4.08008 10.7011 5.26025 11.7939 5.26025 13.1416C5.26025 14.4896 4.08008 15.5821 2.62397 15.5821C2.27271 15.5825 1.92493 15.5176 1.60121 15.3914C1.53483 15.3682 1.46454 15.356 1.39358 15.3554C1.31402 15.3553 1.23523 15.3698 1.16172 15.398C1.08821 15.4261 1.02142 15.4675 0.965192 15.5196C0.90896 15.5717 0.864385 15.6336 0.834021 15.7017C0.803657 15.7698 0.7881 15.8427 0.788242 15.9164C0.788242 15.9481 0.792832 15.9789 0.798502 16.0094H0.784192V19.2304C0.783382 19.2449 0.779602 19.2584 0.779602 19.2729C0.779745 19.5363 0.892808 19.7888 1.09395 19.9751C1.29509 20.1613 1.56786 20.266 1.85231 20.2661C1.88174 20.2661 1.90955 20.2604 1.93844 20.2581H5.50028C5.57988 20.2581 5.6587 20.2436 5.73222 20.2153C5.80575 20.1871 5.87255 20.1457 5.92882 20.0936C5.98508 20.0414 6.0297 19.9795 6.06012 19.9114C6.09055 19.8433 6.1062 19.7703 6.10616 19.6966C6.10616 19.6346 6.09266 19.5764 6.07268 19.5206L6.0716 19.5171C6.06701 19.5044 6.06431 19.4906 6.05864 19.4784H6.0608C5.99011 19.2558 5.95402 19.0251 5.95361 18.7931C5.95354 18.4726 6.02167 18.1553 6.1541 17.8591C6.28653 17.563 6.48068 17.2939 6.72544 17.0673C6.97021 16.8407 7.2608 16.6609 7.58061 16.5383C7.90043 16.4157 8.2432 16.3526 8.58935 16.3526C8.93549 16.3526 9.27825 16.4157 9.59805 16.5383C9.91785 16.661 10.2084 16.8407 10.4532 17.0674C10.6979 17.294 10.8921 17.5631 11.0245 17.8592C11.157 18.1553 11.2251 18.4726 11.2251 18.7931C11.2247 19.0251 11.1886 19.2559 11.1179 19.4784H11.1247C11.0855 19.5637 11.0698 19.6567 11.0789 19.7491C11.088 19.8414 11.1217 19.9302 11.177 20.0076C11.2322 20.0849 11.3073 20.1483 11.3955 20.1922C11.4837 20.2362 11.5823 20.2591 11.6825 20.2591C11.686 20.2591 11.6892 20.2581 11.6927 20.2581H15.1466C15.429 20.2578 15.6999 20.1544 15.9005 19.9703C16.1011 19.7863 16.2153 19.5364 16.2182 19.2749H16.2196V16.0094H16.2071C16.1893 15.874 16.1187 15.7494 16.0084 15.6589C15.8982 15.5685 15.7561 15.5185 15.6088 15.5184V15.4936C15.3831 15.5515 15.15 15.5812 14.9157 15.5819C13.4599 15.5819 12.2797 14.4894 12.2797 13.1414C12.2797 11.7936 13.4599 10.7009 14.9157 10.7009C15.156 10.7009 15.3877 10.7331 15.6088 10.7891V10.7656L15.6156 10.7661C15.8883 10.7661 16.1159 10.5986 16.1917 10.3691H16.2196V10.2179C16.2196 10.2136 16.2209 10.2099 16.2209 10.2056C16.2204 10.2014 16.2193 10.1976 16.219 10.1934Z" fill="#959595"/>
</svg>
