<svg width="22" height="18" viewBox="0 0 22 18" fill="none" xmlns="http://www.w3.org/2000/svg">
<path d="M12.1101 0.844303C11.6563 -0.0760306 10.3446 -0.0760306 9.89082 0.844303L7.72932 5.22322L2.89574 5.92539C1.88099 6.07297 1.4749 7.32055 2.21007 8.03647L5.70715 11.4465L4.88215 16.259C4.70799 17.2701 5.76949 18.041 6.67699 17.5643L11 15.291L15.323 17.5643C16.2305 18.041 17.292 17.271 17.1187 16.259L16.2937 11.4465L19.7908 8.03647C20.5242 7.32147 20.1199 6.07297 19.1042 5.92539L14.2725 5.22322L12.1092 0.844303H12.1101Z" fill="#959595"/>
<path d="M1.06698 1.46664C0.953219 1.60911 0.900704 1.79094 0.920988 1.97213C0.941273 2.15331 1.0327 2.31902 1.17515 2.43281L3.46682 4.26614C3.60928 4.38004 3.79116 4.43268 3.97244 4.41248C4.0622 4.40248 4.14911 4.3749 4.22821 4.33131C4.30731 4.28772 4.37705 4.22898 4.43344 4.15843C4.48984 4.08789 4.53179 4.00693 4.5569 3.92018C4.58201 3.83342 4.58979 3.74257 4.57978 3.65281C4.56978 3.56306 4.5422 3.47614 4.49861 3.39704C4.45502 3.31795 4.39628 3.24821 4.32573 3.19181L2.03407 1.35848C1.9635 1.302 1.88248 1.26 1.79566 1.23487C1.70884 1.20974 1.61792 1.20198 1.5281 1.21202C1.43827 1.22207 1.35131 1.24973 1.27219 1.29342C1.19307 1.33711 1.12333 1.39597 1.06698 1.46664Z" fill="#959595"/>
<path d="M20.933 14.6996C21.0468 14.5573 21.0995 14.3755 21.0794 14.1943C21.0593 14.0132 20.968 13.8474 20.8257 13.7335L18.5341 11.9001C18.3916 11.7861 18.2097 11.7333 18.0283 11.7535C17.8469 11.7736 17.681 11.8649 17.567 12.0074C17.4529 12.1498 17.4002 12.3318 17.4203 12.5131C17.4404 12.6945 17.5318 12.8604 17.6742 12.9745L19.9659 14.8078C20.0364 14.8643 20.1174 14.9064 20.2042 14.9316C20.2909 14.9568 20.3818 14.9646 20.4717 14.9547C20.5615 14.9447 20.6485 14.9171 20.7276 14.8735C20.8068 14.8299 20.8766 14.7711 20.933 14.7005V14.6996Z" fill="#959595"/>
<path d="M1.17515 13.7337C1.03269 13.8476 0.941302 14.0134 0.921103 14.1947C0.900903 14.3759 0.953544 14.5578 1.06744 14.7003C1.18134 14.8428 1.34717 14.9341 1.52845 14.9543C1.70973 14.9745 1.8916 14.9219 2.03407 14.808L4.32574 12.9747C4.4682 12.8608 4.55958 12.6949 4.57978 12.5137C4.59998 12.3324 4.54734 12.1505 4.43344 12.008C4.31954 11.8656 4.15372 11.7742 3.97244 11.754C3.79116 11.7338 3.60928 11.7864 3.46682 11.9003L1.17515 13.7337Z" fill="#959595"/>
<path d="M20.933 1.46664C21.0468 1.609 21.0995 1.79075 21.0794 1.97193C21.0593 2.15311 20.968 2.31889 20.8257 2.43281L18.5341 4.26614C18.3916 4.38016 18.2097 4.43292 18.0283 4.41281C17.8469 4.39269 17.681 4.30136 17.567 4.15889C17.4529 4.01643 17.4002 3.8345 17.4203 3.65314C17.4404 3.47178 17.5318 3.30583 17.6742 3.19181L19.9659 1.35848C20.0365 1.302 20.1175 1.26 20.2043 1.23487C20.2911 1.20974 20.382 1.20198 20.4719 1.21202C20.5617 1.22207 20.6486 1.24973 20.7278 1.29342C20.8069 1.33711 20.8766 1.39597 20.933 1.46664Z" fill="#959595"/>
</svg>
