<svg width="22" height="21" viewBox="0 0 22 21" fill="none" xmlns="http://www.w3.org/2000/svg">
<path d="M16.7917 6.32279L16.1354 4.86446L14.6771 4.20821C14.5861 4.16678 14.509 4.10007 14.455 4.01603C14.4009 3.93199 14.3722 3.83418 14.3722 3.73425C14.3722 3.63433 14.4009 3.53651 14.455 3.45248C14.509 3.36844 14.5861 3.30172 14.6771 3.2603L16.1354 2.60405L16.7917 1.14571C16.8331 1.05478 16.8998 0.977686 16.9838 0.923626C17.0679 0.869565 17.1657 0.84082 17.2656 0.84082C17.3655 0.84082 17.4634 0.869565 17.5474 0.923626C17.6314 0.977686 17.6981 1.05478 17.7396 1.14571L18.3958 2.60405L19.8542 3.2603C19.9451 3.30172 20.0222 3.36844 20.0762 3.45248C20.1303 3.53651 20.159 3.63433 20.159 3.73425C20.159 3.83418 20.1303 3.93199 20.0762 4.01603C20.0222 4.10007 19.9451 4.16678 19.8542 4.20821L18.3958 4.86446L17.7396 6.32279C17.5625 6.72904 16.9792 6.72904 16.7917 6.32279ZM20.1667 11.2499L19.8333 10.4999C19.7919 10.4089 19.7252 10.3319 19.6411 10.2778C19.5571 10.2237 19.4593 10.195 19.3594 10.195C19.2594 10.195 19.1616 10.2237 19.0776 10.2778C18.9935 10.3319 18.9268 10.4089 18.8854 10.4999L18.5521 11.2499L17.7917 11.5832C17.7007 11.6246 17.6236 11.6914 17.5696 11.7754C17.5155 11.8594 17.4868 11.9572 17.4868 12.0572C17.4868 12.1571 17.5155 12.2549 17.5696 12.3389C17.6236 12.423 17.7007 12.4897 17.7917 12.5311L18.5417 12.8645L18.875 13.6249C18.9164 13.7158 18.9831 13.7929 19.0672 13.847C19.1512 13.901 19.249 13.9298 19.3489 13.9298C19.4489 13.9298 19.5467 13.901 19.6307 13.847C19.7148 13.7929 19.7815 13.7158 19.8229 13.6249L20.1562 12.8749L20.9167 12.5415C21.0076 12.5001 21.0847 12.4334 21.1387 12.3494C21.1928 12.2653 21.2215 12.1675 21.2215 12.0676C21.2215 11.9677 21.1928 11.8698 21.1387 11.7858C21.0847 11.7018 21.0076 11.6351 20.9167 11.5936L20.1667 11.2499ZM14.9167 12.9686L16.1979 13.9374C16.6146 14.2499 16.7292 14.8332 16.4687 15.2915L14.7812 18.2082C14.5208 18.6665 13.9583 18.854 13.4792 18.6457L11.9896 18.0207C11.7812 18.1561 11.5521 18.2915 11.3229 18.4061L11.125 20.0103C11.0625 20.5311 10.6146 20.927 10.0937 20.927H6.72915C6.20832 20.927 5.7604 20.5311 5.6979 20.0103L5.49999 18.4061C5.27082 18.2915 5.05207 18.1665 4.83332 18.0207L3.34374 18.6457C2.86457 18.854 2.30207 18.6665 2.04165 18.2082L0.354154 15.2915C0.0937369 14.8332 0.20832 14.2603 0.624987 13.9374L1.90624 12.9686V12.5832C1.90624 12.4582 1.90624 12.3228 1.91665 12.1978L0.635404 11.229C0.218737 10.9165 0.104154 10.3332 0.36457 9.87488L2.05207 6.95821C2.31249 6.49988 2.87499 6.31238 3.35415 6.52071L4.84374 7.14571C5.05207 7.01029 5.28124 6.87488 5.5104 6.76029L5.70832 5.15613C5.7604 4.64571 6.20832 4.24988 6.72915 4.24988H10.0937C10.6146 4.24988 11.0625 4.64571 11.125 5.16654L11.3229 6.77071C11.5521 6.88529 11.7708 7.01029 11.9896 7.15613L13.4792 6.53113C13.9583 6.32279 14.5208 6.51029 14.7812 6.96863L16.4687 9.88529C16.7292 10.3436 16.6146 10.9165 16.1979 11.2395L14.9167 12.2082C14.9271 12.3332 14.9271 12.4582 14.9271 12.5936C14.9271 12.729 14.9271 12.8436 14.9167 12.9686ZM11.5417 12.5832C11.5417 10.854 10.1458 9.45821 8.41665 9.45821C6.68749 9.45821 5.29165 10.854 5.29165 12.5832C5.29165 14.3124 6.68749 15.7082 8.41665 15.7082C10.1458 15.7082 11.5417 14.3124 11.5417 12.5832Z" fill="#959595"/>
</svg>
