<svg xmlns="http://www.w3.org/2000/svg" xmlns:xlink="http://www.w3.org/1999/xlink" width="50" height="50" viewBox="0 0 50 50">
  <defs>
    <clipPath id="clip-Custom_Size_1">
      <rect width="50" height="50"/>
    </clipPath>
  </defs>
  <g id="Custom_Size_1" data-name="Custom Size – 1" clip-path="url(#clip-Custom_Size_1)">
    <path id="enrolled" d="M14.678,16.775A8.387,8.387,0,1,0,6.291,8.387,8.387,8.387,0,0,0,14.678,16.775Zm5.871,2.1H19.455a11.407,11.407,0,0,1-9.554,0H8.807A8.809,8.809,0,0,0,0,27.679V30.4A3.146,3.146,0,0,0,3.145,33.55H26.211A3.146,3.146,0,0,0,29.356,30.4V27.679A8.809,8.809,0,0,0,20.549,18.872Zm21.165-8.414L39.893,8.617a.777.777,0,0,0-1.1-.007l-6.867,6.815-2.981-3a.777.777,0,0,0-1.1-.007L26,14.246a.777.777,0,0,0-.007,1.1l5.354,5.393a.777.777,0,0,0,1.1.007l9.259-9.187A.783.783,0,0,0,41.715,10.458Z" transform="translate(5.062 8.225)" fill="#fff"/>
  </g>
</svg>
