<svg width="18" height="18" viewBox="0 0 18 18" fill="none" xmlns="http://www.w3.org/2000/svg">
<path d="M12.375 11.75H10.875C10.5766 11.75 10.2905 11.8685 10.0795 12.0795C9.86853 12.2905 9.75 12.5766 9.75 12.875C9.75 13.1734 9.86853 13.4595 10.0795 13.6705C10.2905 13.8815 10.5766 14 10.875 14H12.375V14.75H10.875C10.3777 14.75 9.90081 14.5525 9.54917 14.2008C9.19754 13.8492 9 13.3723 9 12.875C9 12.3777 9.19754 11.9008 9.54917 11.5492C9.90081 11.1975 10.3777 11 10.875 11H12.375V11.75ZM13.125 14H14.625C14.9234 14 15.2095 13.8815 15.4205 13.6705C15.6315 13.4595 15.75 13.1734 15.75 12.875C15.75 12.5766 15.6315 12.2905 15.4205 12.0795C15.2095 11.8685 14.9234 11.75 14.625 11.75H13.125V11H14.625C15.1223 11 15.5992 11.1975 15.9508 11.5492C16.3025 11.9008 16.5 12.3777 16.5 12.875C16.5 13.3723 16.3025 13.8492 15.9508 14.2008C15.5992 14.5525 15.1223 14.75 14.625 14.75H13.125V14ZM11.625 12.5H13.875C13.9745 12.5 14.0698 12.5395 14.1402 12.6098C14.2105 12.6802 14.25 12.7755 14.25 12.875C14.25 12.9745 14.2105 13.0698 14.1402 13.1402C14.0698 13.2105 13.9745 13.25 13.875 13.25H11.625C11.5255 13.25 11.4302 13.2105 11.3598 13.1402C11.2895 13.0698 11.25 12.9745 11.25 12.875C11.25 12.7755 11.2895 12.6802 11.3598 12.6098C11.4302 12.5395 11.5255 12.5 11.625 12.5Z" fill="#9A9A9A"/>
<path fill-rule="evenodd" clip-rule="evenodd" d="M7.5 8.25C5.63925 8.25 4.125 6.73575 4.125 4.875C4.125 3.01425 5.63925 1.5 7.5 1.5C9.36075 1.5 10.875 3.01425 10.875 4.875C10.875 6.73575 9.36075 8.25 7.5 8.25ZM10.6601 10.019C10.1381 9.84455 9.57984 9.75 9 9.75H6C3.105 9.75 0.75 12.1058 0.75 15V15.75H9.79914C8.74006 15.2869 8 14.2299 8 13C8 11.4581 9.16326 10.1879 10.6601 10.019Z" fill="#9A9A9A"/>
</svg>
