<svg width="18" height="18" viewBox="0 0 18 18" fill="none" xmlns="http://www.w3.org/2000/svg">
<path d="M10.6875 9V10.125H9.98438C9.71961 10.1289 9.46721 10.2377 9.28263 10.4275C9.09805 10.6174 8.99639 10.8727 9 11.1375V15.8625C9 16.4216 9.441 16.875 9.98438 16.875H15.8906C16.1554 16.8711 16.4078 16.7623 16.5924 16.5725C16.7769 16.3826 16.8786 16.1273 16.875 15.8625V11.1375C16.875 10.5784 16.434 10.125 15.8906 10.125H15.1875V9C15.1875 8.40326 14.9504 7.83097 14.5285 7.40901C14.1065 6.98705 13.5342 6.75 12.9375 6.75C12.3408 6.75 11.7685 6.98705 11.3465 7.40901C10.9246 7.83097 10.6875 8.40326 10.6875 9ZM12.9375 7.875C13.2359 7.875 13.522 7.99353 13.733 8.2045C13.944 8.41548 14.0625 8.70163 14.0625 9V10.125H11.8125V9C11.8125 8.70163 11.931 8.41548 12.142 8.2045C12.353 7.99353 12.6391 7.875 12.9375 7.875ZM12.9375 14.3438C12.7137 14.3438 12.4991 14.2549 12.3409 14.0966C12.1826 13.9384 12.0938 13.7238 12.0938 13.5C12.0938 13.2762 12.1826 13.0616 12.3409 12.9034C12.4991 12.7451 12.7137 12.6562 12.9375 12.6562C13.1613 12.6562 13.3759 12.7451 13.5341 12.9034C13.6924 13.0616 13.7812 13.2762 13.7812 13.5C13.7812 13.7238 13.6924 13.9384 13.5341 14.0966C13.3759 14.2549 13.1613 14.3438 12.9375 14.3438ZM7.875 15.75V11.1375C7.875 10.1272 8.5815 9.24188 9.5625 9.04275V9H3.9375C3.48995 9 3.06072 9.17779 2.74426 9.49426C2.42779 9.81072 2.25 10.2399 2.25 10.6875V11.25C2.25 13.4674 4.3425 15.75 7.875 15.75ZM10.9688 4.78125C10.9688 3.96074 10.6428 3.17383 10.0626 2.59364C9.48242 2.01345 8.69551 1.6875 7.875 1.6875C7.05449 1.6875 6.26758 2.01345 5.68739 2.59364C5.1072 3.17383 4.78125 3.96074 4.78125 4.78125C4.78125 5.60176 5.1072 6.38867 5.68739 6.96886C6.26758 7.54905 7.05449 7.875 7.875 7.875C8.69551 7.875 9.48242 7.54905 10.0626 6.96886C10.6428 6.38867 10.9688 5.60176 10.9688 4.78125Z" fill="#9A9A9A"/>
</svg>
