<svg width="13" height="13" viewBox="0 0 13 13" fill="none" xmlns="http://www.w3.org/2000/svg">
<path d="M6.49978 1.08301C9.49195 1.08301 11.9175 3.50859 11.9175 6.50076C11.9175 9.49238 9.49195 11.918 6.49978 11.918C3.50761 11.918 1.08203 9.49238 1.08203 6.50076C1.08203 3.50859 3.50761 1.08301 6.49978 1.08301ZM8.09174 8.93772H4.90728C5.26045 10.2453 5.8747 11.1055 6.49924 11.1055C7.12378 11.1055 7.73803 10.2453 8.0912 8.93772H8.09174ZM4.06716 8.93772H2.59166C3.11463 9.77455 3.89174 10.422 4.80924 10.7853C4.52649 10.3412 4.29303 9.78542 4.12132 9.15222L4.06607 8.93826L4.06716 8.93772ZM10.4074 8.93772H8.93295C8.75745 9.66084 8.50395 10.2919 8.18924 10.7853C9.04878 10.4454 9.78655 9.85533 10.3072 9.09155L10.4074 8.93826V8.93772ZM3.84236 5.41688H2.02291L2.0202 5.42609C1.93616 5.77813 1.8938 6.13883 1.89399 6.50076C1.89399 7.07276 1.99853 7.62038 2.1892 8.12576H3.90791C3.77709 7.22893 3.75472 6.3196 3.84128 5.41742L3.84236 5.41688ZM8.33982 5.41688H4.65974C4.56444 6.31893 4.58903 7.22963 4.73286 8.12522H8.2667C8.41048 7.22962 8.43507 6.31893 8.33982 5.41688ZM10.9767 5.41688H9.15774C9.19132 5.76734 9.2092 6.13026 9.2092 6.50022C9.21008 7.04406 9.17061 7.58721 9.09111 8.12522H10.8098C11.0054 7.60579 11.1052 7.05523 11.1045 6.50022C11.1045 6.12701 11.0601 5.76355 10.9767 5.41688ZM4.80978 2.21563L4.79732 2.21997C3.68876 2.66263 2.79449 3.5171 2.30186 4.60438H3.95286C4.12295 3.65538 4.4187 2.8288 4.81032 2.21563H4.80978ZM6.49978 1.89551L6.43695 1.89822C5.75228 1.96105 5.08928 3.04547 4.7827 4.60438H8.21795C7.91136 3.0498 7.25216 1.96701 6.56857 1.89876L6.49978 1.89605V1.89551ZM8.18978 2.21509L8.24774 2.30988C8.61012 2.91222 8.88528 3.70305 9.0467 4.60492H10.6977C10.2275 3.56714 9.39047 2.7396 8.34741 2.28117L8.18978 2.21563V2.21509Z" fill="#9A9A9A"/>
</svg>
