<svg width="11" height="11" viewBox="0 0 11 11" fill="none" xmlns="http://www.w3.org/2000/svg">
<g clip-path="url(#clip0_2815_2544)">
<path d="M5.22029 0.171875C2.42659 0.171875 0.163086 2.55664 0.163086 5.5C0.163086 8.44336 2.42659 10.8281 5.22029 10.8281C8.01399 10.8281 10.2775 8.44336 10.2775 5.5C10.2775 2.55664 8.01399 0.171875 5.22029 0.171875ZM4.89402 7.21875C4.89402 7.40781 4.7472 7.5625 4.56775 7.5625H3.58893C3.40948 7.5625 3.26266 7.40781 3.26266 7.21875V3.78125C3.26266 3.59219 3.40948 3.4375 3.58893 3.4375H4.56775C4.7472 3.4375 4.89402 3.59219 4.89402 3.78125V7.21875ZM7.17792 7.21875C7.17792 7.40781 7.0311 7.5625 6.85165 7.5625H5.87283C5.69338 7.5625 5.54656 7.40781 5.54656 7.21875V3.78125C5.54656 3.59219 5.69338 3.4375 5.87283 3.4375H6.85165C7.0311 3.4375 7.17792 3.59219 7.17792 3.78125V7.21875Z" fill="white"/>
</g>
<defs>
<clipPath id="clip0_2815_2544">
<rect width="10.4407" height="11" fill="white"/>
</clipPath>
</defs>
</svg>
